<?xml version="1.0" encoding="UTF-8" standalone="no"?>
<svg
   width="618.712"
   height="385.757"
   viewBox="0 0 163.701 102.065"
   version="1.1"
   id="svg91"
   xmlns="http://www.w3.org/2000/svg"
   xmlns:svg="http://www.w3.org/2000/svg">
  <defs
     id="defs73">
    <clipPath
       id="clipPath4">
      <path
         d="M459.746 697.026h87.84v89.64h-87.84z"
         id="path2" />
    </clipPath>
    <clipPath
       id="clipPath8">
      <path
         d="M464.533 714.44h66v67h-66z"
         id="path6" />
    </clipPath>
    <clipPath
       id="clipPath12">
      <path
         d="M464.533 713.04h66.96v68.76h-66.96z"
         id="path10" />
    </clipPath>
    <clipPath
       id="clipPath16">
      <path
         d="M548.352 697.026h87.84v89.64h-87.84z"
         id="path14" />
    </clipPath>
    <clipPath
       id="clipPath20">
      <path
         d="M553.14 714.44h66v67h-66z"
         id="path18" />
    </clipPath>
    <clipPath
       id="clipPath24">
      <path
         d="M553.14 713.04h66.96v68.76h-66.96z"
         id="path22" />
    </clipPath>
    <clipPath
       id="clipPath28">
      <path
         d="M359.912 697.026h87.84v89.64h-87.84z"
         id="path26" />
    </clipPath>
    <clipPath
       id="clipPath32">
      <path
         d="M364.7 714.44h66v67h-66z"
         id="path30" />
    </clipPath>
    <clipPath
       id="clipPath36">
      <path
         d="M364.7 713.04h66.96v68.76H364.7z"
         id="path34" />
    </clipPath>
    <clipPath
       id="clipPath40">
      <path
         d="M69.994 249.077h142.56v86.4H69.994z"
         id="path38" />
    </clipPath>
    <clipPath
       id="K">
      <path
         d="M0 0h648v864H0z"
         id="path42" />
    </clipPath>
    <clipPath
       id="clipPath47">
      <path
         d="M-117.832 506.465h552.96v315.36h-552.96z"
         id="path45" />
    </clipPath>
    <clipPath
       id="clipPath51">
      <path
         d="M284.036 430.578h447.84V1003.7h-447.84z"
         id="path49" />
    </clipPath>
    <clipPath
       id="clipPath55">
      <path
         d="M497.118 90.4h158.4V280.5h-158.4z"
         id="path53" />
    </clipPath>
    <clipPath
       id="clipPath59">
      <path
         d="M3.63.15h164.16v344.16H3.63z"
         id="path57" />
    </clipPath>
    <clipPath
       id="clipPath63">
      <path
         d="M167.613 179.505h167.04v120.96h-167.04z"
         id="path61" />
    </clipPath>
    <clipPath
       id="clipPath67">
      <path
         d="M167.613 72.925h167.04v120.96h-167.04z"
         id="path65" />
    </clipPath>
    <clipPath
       id="clipPath71">
      <path
         d="M319.372 10.444h194.4v332.64h-194.4z"
         id="path69" />
    </clipPath>
  </defs>
  <g
     clip-path="url(#K)"
     transform="matrix(1.568475 0 0 -1.568475 -554.24459 642.68271)"
     id="g89">
    <path
       d="M355.876 367.274c4.9-14.598 28.135-20.294 53.11-14.488 24.143 5.82 37.875 23.754 33.734 36.68-4.453 13.83-25.102 21.307-52.274 14.095-23.3-6.053-38.582-22.783-34.57-36.287"
       fill="#ed1c24"
       id="path75" />
    <path
       d="M454.212 390.51c-5.228 16.446-32.117 23.695-59.68 16.41-28.17-7.09-45.404-25.008-40.264-41.88 4.748-16.173 30.686-23.96 58.3-17.183 28.085 6.89 46.9 26.082 41.633 42.65m-98.336-23.237c-4.013 13.504 11.26 30.234 34.57 36.287 27.172 7.213 47.82-.264 52.274-14.095 4.14-12.926-9.59-30.86-33.734-36.68-24.974-5.807-48.2-.11-53.11 14.487"
       fill="#f6e682"
       id="path77" />
    <g
       fill="#49261d"
       id="g83">
      <path
         d="M450.605 384.198c.003-.195.042-.372.116-.53s.172-.3.294-.402.263-.196.422-.254a1.42 1.42 0 0 1 .498-.088c.173.001.338.03.495.1a1.24 1.24 0 0 1 .414.256 1.2 1.2 0 0 1 .282.404 1.27 1.27 0 0 1 .1.529c-.003.193-.042.368-.116.525a1.15 1.15 0 0 1-.295.4 1.32 1.32 0 0 1-.422.255c-.16.06-.324.1-.497.1s-.34-.03-.495-.092a1.32 1.32 0 0 1-.415-.257 1.19 1.19 0 0 1-.282-.401c-.07-.157-.102-.333-.1-.526m.348.001a1.03 1.03 0 0 0 .068.4c.048.12.115.227.2.316s.185.16.302.2.242.076.376.076a.94.94 0 0 0 .375-.074.96.96 0 0 0 .308-.207 1.03 1.03 0 0 0 .211-.315 1.05 1.05 0 0 0 .084-.401c.001-.146-.022-.28-.07-.403s-.117-.23-.202-.32a.89.89 0 0 0-.302-.21.93.93 0 0 0-.372-.076c-.134 0-.26.024-.38.074s-.22.12-.308.2-.157.196-.2.32-.08.256-.08.402m.442.718l.023-1.43.283.001v.6h.178l.357-.6h.297l-.4.623a.62.62 0 0 1 .146.031.36.36 0 0 1 .118.07.31.31 0 0 1 .079.115c.018.046.027.102.026.168-.002.155-.052.264-.15.328s-.236.094-.416.094zm.293-.596l-.006.374.24.001c.032 0 .066-.002.1-.006s.067-.013.096-.026.052-.03.07-.052.028-.054.028-.093c.002-.086-.023-.14-.076-.163a.5.5 0 0 0-.201-.035zm5.228 4.878c-2.783 8.7-13.53 16.292-22.882 18.068l-.005-.016c10.168-3.068 17.665-8.84 20.174-16.73 5.267-16.57-13.55-35.763-41.633-42.65-18.72-4.593-36.663-2.495-47.764 4.366.03-.03 8.237-7.545 29.4-7.55 7.07-.001 14.278.887 20.845 2.564 17.948 4.582 32.904 13.9 39.294 25.075 3.233 5.648 4.288 11.532 2.58 16.874m-99.98-22.6c-4.056 13.82 11.3 30.177 34.98 35.932 21.52 5.23 37.37 2.452 46.173-5.55l-.158.175c-8.522 8.595-25.963 12.1-47.506 6.393-23.3-6.054-38.582-22.783-34.57-36.287a17.72 17.72 0 0 1 .25-.694c.027-.07.057-.14.085-.2l.193-.47c.034-.08.07-.156.106-.234l.2-.435.116-.23.218-.425.123-.22.24-.422c.04-.07.084-.138.126-.207l.263-.424c.04-.064.084-.127.126-.2l.3-.428a6.79 6.79 0 0 1 .124-.172c.104-.146.2-.3.32-.433l.12-.154.35-.438.114-.135c.125-.15.253-.298.384-.444l.104-.116.42-.45.093-.095c.15-.154.303-.307.46-.457.026-.026.053-.05.08-.076.163-.157.33-.3.498-.463l.064-.058c.177-.158.357-.314.54-.468l.045-.038a22.93 22.93 0 0 1 .587-.475c.007-.006.015-.012.022-.017.207-.163.424-.32.638-.477l.01.006c-2.93 2.45-5.077 5.425-6.227 8.888"
         id="path79" />
      <path
         d="M376.736 396.985l-4.16-12.5 10.768 12.498h7.7l-16.906-20.006 4.657-20.736-6.462.001-3.76 16.75-5.7-16.793H356.5l13.582 40.784zm47.208-.001l7.69-.001-16.905-20.007 4.657-20.735-6.463.001-3.758 16.75-5.7-16.792H397.1l13.58 40.784h6.655l-4.054-12.41zm-35.004-6.963c.766 0 1.452-.288 1.856-.853.756-1.06.234-2.693-1.165-3.648-.653-.445-1.38-.664-2.05-.664-.765 0-1.45.288-1.855.854-.756 1.06-.234 2.692 1.166 3.647.652.445 1.38.664 2.047.664m50.696-.492l6.174-.001-1.987-5.577h3.726l-1.622-4.644h-3.704l-2.654-7.607c-.176-.5-.014-.98.33-1.08a.7.7 0 0 1 .202-.031c.344 0 .608.276.753.675l1 2.835h4.888l-.717-2.306c-1.068-3.206-2.8-5.858-6.79-5.858-4.136 0-6.532 3.8-4.62 9.27l5.03 14.324m-45.67 0l6.173-.001-1.987-5.577h3.726l-1.62-4.644h-3.705l-2.654-7.607c-.175-.5-.013-.98.33-1.08.07-.02.138-.03.203-.03.343 0 .607.276.752.675.338.923 1 2.835 1 2.835h4.888s-.353-1.215-.717-2.306c-1.068-3.206-2.8-5.858-6.788-5.858-4.137 0-6.533 3.8-4.62 9.27l5.03 14.324m34.978-3.45c4.11 0 6.385-3.162 4.977-7.683-.802-2.576-4.282-11.935-4.282-11.935l-5.82-.002.302.877c-1.15-1.07-1.917-1.345-3.23-1.345-2.793 0-4.06 3.605-2.738 7.452 1.365 3.978 3.78 4.83 6.304 4.83 1.384 0 2.385-.65 2.953-1.26.254.752.727 2.28.998 3.16.234.757-.193 1.338-.64 1.338-.417 0-.9-.156-1.152-.927-.167-.515-.442-1.277-.442-1.277h-5.064c.782 3.386 2.842 6.77 7.836 6.77m-4.68-16.193c.4 0 .743.352 1.074 1.078.216.47.607 1.683.704 2.098.2.812.018 1.316-.48 1.412-.044.008-.087.012-.13.012-.953 0-1.75-2-1.84-3.14-.07-.9.14-1.392.57-1.452a.7.7 0 0 1 .101-.008M383.97 383.95h6.203l-6.018-17.493-6.278.001zm-5.207 14.496h-9.736L354.47 354.74h9.44l.337.992 4.027 11.866 2.876-12.816h9.46l-2.294 10.217 6.883-.001 1.736 5.05c.192-1.1.593-2.082 1.178-2.907 1.22-1.72 3.152-2.666 5.44-2.666 2.2 0 4.033.7 5.454 2.083l-3.935-11.817h9.44l.337.992 4.027 11.866 2.875-12.816h9.46l-.4 1.783-1.894 8.43a4.3 4.3 0 0 1 1.971-.466c.95 0 1.713.136 2.434.47l7.332.002.354.952 1.57 4.263c.18-1.156.6-2.208 1.206-3.075 1.22-1.72 3.152-2.666 5.44-2.666 2.238 0 4.097.725 5.527 2.155 1.107 1.107 1.95 2.6 2.65 4.702.368 1.107.72 2.3.733 2.36l.544 1.87h-6.214l.797 2.285h3.704l.343.98 2.3 6.59h-3.712l1.987 5.576H438.6l-2.966-8.44c-.192.89-.55 1.705-1.072 2.414-1.222 1.66-3.218 2.576-5.62 2.576-1.513 0-2.876-.28-4.07-.822l9.9 11.727-3.15.001h-8.36l-6.327-7.364 2.406 7.364h-9.725l-7.62-22.886h-5.214l.798 2.285h3.704l2.642 7.57h-3.712L402.2 391h-9.282l-.344-.976c-.005-.016-.09-.255-.232-.662a3.27 3.27 0 0 1-.367.665c-.665.932-1.775 1.466-3.046 1.466-.227 0-.456-.017-.685-.05l5.927 7.014h-11.51l-6.372-7.395 1.822 5.472zm-3.05-21.858l7.05 8.344-.175-.5-5.25-15.077zm40.6-.001l3.768 4.46a14.21 14.21 0 0 1-.399-1.411l-.38-1.644c-1.04-.91-1.845-2.172-2.446-3.824zm8.743-5.766z"
         id="path81" />
    </g>
    <path
       d="M440.853 371.263c-.173-.474-.513-.774-.956-.644-.342.1-.504.58-.33 1.082l2.654 7.607 3.705-.001 1.62 4.644h-3.726l1.988 5.577-6.174.001-5.03-14.324c-1.914-5.472.483-9.27 4.62-9.27 3.998 0 5.72 2.652 6.79 5.858.363 1.092.716 2.307.716 2.307h-4.888l-.99-2.836m-45.672 0c-.173-.474-.513-.774-.955-.644-.343.1-.505.58-.33 1.082l2.654 7.607 3.705-.001 1.62 4.644h-3.726l1.987 5.577-6.174.001-5.03-14.324c-1.915-5.472.482-9.27 4.618-9.27 4 0 5.72 2.652 6.79 5.858a72.21 72.21 0 0 1 .717 2.307h-4.888l-1-2.836m-17.305-4.804l6.094 17.493 6.202-.001-6.017-17.493zm51.067 19.62c-4.994 0-7.054-3.384-7.836-6.77h5.064l.442 1.276c.25.77.735.927 1.152.927.447 0 .874-.58.64-1.338l-1-3.16c-.567.61-1.568 1.26-2.952 1.26-2.523 0-4.94-.852-6.304-4.83-1.32-3.847-.056-7.453 2.737-7.453 1.314 0 2.08.276 3.23 1.345l-.302-.877 5.82.002 4.282 11.935c1.408 4.522-.867 7.683-4.977 7.683m-2.902-13.016c-.097-.416-.49-1.628-.704-2.1-.36-.785-.73-1.132-1.175-1.07-.428.06-.64.55-.57 1.452.092 1.18.96 3.323 1.968 3.128.498-.096.67-.6.48-1.41m-12.76 11.512l4.055 12.4h-6.655L397.1 356.2h6.364l5.7 16.793 3.757-16.75h6.464l-4.658 20.735 16.906 20.007h-7.69zm-43.2 12.41L356.5 356.2h6.364l5.7 16.793 3.758-16.75h6.462l-4.656 20.735 16.905 20.006h-7.69l-10.768-12.498 4.16 12.5zm20.715-7.817c-.756 1.06-2.504 1.144-3.904.19s-1.92-2.587-1.166-3.647 2.504-1.145 3.904-.19 1.922 2.587 1.166 3.647"
       fill="#fff"
       id="path85" />
    <path
       d="M447.567 383.95l-1.62-4.644h-3.705l-2.654-7.607c-.147-.42-.057-.822.177-1.002l-1.14-.8c-.074.094-.14.195-.196.302-.42.808-.204 1.74.03 2.464l2.455 7.116.33.945h3.705l.64 1.828zm-59.368-1.408l-5.05-14.677h-3.293l-1.98-1.407 6.28-.001 6.017 17.493zm-15.624 1.943l4.16 12.5-1.953-1.408-3.544-10.646-1.618-4.92zm-3.736-6.296l-6.985-20.58h-3.403L356.5 356.2h6.364l5.7 16.793zm22.193 18.794L388 395.576l-15.4-18.224 4.424-19.702h-3.576l-1.127-1.408 6.462-.001-4.656 20.736zm22.25-12.41l4.07 12.41-1.953-1.408-3.543-10.646-1.62-4.92zm-3.84-6.383l-6.985-20.58h-3.402L397.1 356.2h6.364l5.7 16.793zm22.193 18.794l-3.033-1.408-15.4-18.224 4.424-19.702h-3.576l-1.127-1.408 6.462-.001-4.656 20.736zm-31.495-7.456l-1.996-1.408-1.987-5.577 1.996 1.408zm-10.508-4.008c1.4.955 1.922 2.588 1.166 3.648-.02.028-.044.052-.066.08l-1.146-.827c.025-.02.047-.045.066-.07.08-.113.103-.268.07-.46-.06-.333-.322-.824-.882-1.207-.397-.27-.842-.42-1.255-.42-.3 0-.547.083-.677.225l-1.143-.824c.774-1.015 2.488-1.086 3.868-.145m9.376-13.284c-1.16-3.476-2.738-4.894-5.453-4.894-1.137 0-2.076.355-2.752 1.03l-1.16-.824c.938-1.034 2.295-1.615 3.912-1.615 3.998 0 5.72 2.652 6.79 5.858l.716 2.306-1.904-1.408-.148-.454m46.823 17.292l-1.997-1.408-1.987-5.577 1.996 1.408zm-1.132-17.292c-1.16-3.476-2.74-4.894-5.453-4.894-1.137 0-2.076.355-2.753 1.03l-1.16-.824c.937-1.034 2.295-1.615 3.912-1.615 3.998 0 5.72 2.652 6.79 5.858l.716 2.306-1.904-1.408-.148-.454m-10.777 6.158c.85 2.735.354 4.97-1.08 6.31l-1.18-.838a3.12 3.12 0 0 0 .589-.604c.774-1.053.9-2.634.324-4.45-.635-2.04-3.024-8.53-3.917-10.946l-2.856-.001-1.985-1.408 5.82.002 4.282 11.934m-6.155 4.525c-1.19 0-2.097-.692-2.49-1.9l-.102-.305h-2.16l-1.906-1.408h5.064l.442 1.277c.25.77.735.927 1.152.927.133 0 .264-.052.377-.145l1.162.826c-.4.464-.95.727-1.54.727m-4.172-11.574c.092 1.18.96 3.323 1.968 3.128l.48 1.33a2.43 2.43 0 0 1-.212.052 2.11 2.11 0 0 1-.396.038c-2.048 0-3.123-2.89-3.243-4.44-.152-1.958.75-2.625 1.368-2.852l.46 1.332c-.33.145-.485.62-.423 1.41m-23.7 11.198l-.64-1.828h-3.705l-.33-.945-2.454-7.116c-.234-.723-.448-1.656-.03-2.464a2.11 2.11 0 0 1 .196-.302l1.14.8c-.234.18-.323.583-.177 1.002l2.655 7.607h3.704l1.62 4.644z"
       fill="#deddde"
       id="path87" />
  </g>
</svg>
