<?xml version="1.0" encoding="UTF-8" standalone="no"?>
<!-- Generator: Adobe Illustrator 23.0.3, SVG Export Plug-In . SVG Version: 6.00 Build 0)  -->

<svg
   version="1.1"
   id="svg2"
   inkscape:output_extension="org.inkscape.output.svg.inkscape"
   inkscape:version="1.2.1 (9c6d41e410, 2022-07-14)"
   sodipodi:docname="Snickerslogo2019.svg"
   sodipodi:version="0.32"
   x="0px"
   y="0px"
   viewBox="0 0 799.96566 280.73733"
   xml:space="preserve"
   width="799.9657"
   height="280.73734"
   xmlns:inkscape="http://www.inkscape.org/namespaces/inkscape"
   xmlns:sodipodi="http://sodipodi.sourceforge.net/DTD/sodipodi-0.dtd"
   xmlns="http://www.w3.org/2000/svg"
   xmlns:svg="http://www.w3.org/2000/svg"><defs
   id="defs332">
	
	

		
		
		
		
		
		
		
		
	
			
			
		
			
			
		
			
			
		
			
			
		
			
			
		
			
			
		
			
			
		
			
			
		</defs><sodipodi:namedview
   id="namedview330"
   pagecolor="#ffffff"
   bordercolor="#000000"
   borderopacity="0.25"
   inkscape:showpageshadow="2"
   inkscape:pageopacity="0.0"
   inkscape:pagecheckerboard="0"
   inkscape:deskcolor="#d1d1d1"
   showgrid="true"
   inkscape:zoom="0.97368604"
   inkscape:cx="313.75617"
   inkscape:cy="250.59412"
   inkscape:window-width="1920"
   inkscape:window-height="1009"
   inkscape:window-x="-8"
   inkscape:window-y="-8"
   inkscape:window-maximized="1"
   inkscape:current-layer="svg2" />
<style
   type="text/css"
   id="style233">
	.st0{fill-rule:evenodd;clip-rule:evenodd;fill:#E51D24;}
	.st1{fill-rule:evenodd;clip-rule:evenodd;fill:#FFFFFF;}
	.st2{fill:#25368C;}
	.st3{fill:#FFFFFF;}
	.st4{fill-rule:evenodd;clip-rule:evenodd;fill:#25368C;}
</style>
<path
   style="fill:#4d0400;fill-opacity:1;stroke-width:12.1739;stroke-linecap:square;paint-order:stroke fill markers"
   d="M 0,213.23448 748.08483,0 799.9657,68.577057 740.52842,234.90618 c -20.05292,40.0829 -46.58459,45.83116 -78.06487,45.83116 H 65.951038 Z"
   id="path604-9"
   sodipodi:nodetypes="ccccccc" /><path
   style="opacity:1;fill:#ff0000;fill-opacity:1;stroke-width:12.1739;stroke-linecap:square;paint-order:stroke fill markers"
   d="M 0,213.23448 61.712338,41.855918 C 73.537378,16.376014 96.973434,3.5089481e-5 123.12366,3.5089481e-5 L 748.08483,0 687.89419,169.02388 c -20.01171,40.00062 -45.83116,44.2106 -77.31144,44.2106 z"
   id="path604"
   sodipodi:nodetypes="ccccccc" /><path
   style="fill:#ffffff;fill-opacity:1;stroke-width:9.93488;stroke-linecap:square;paint-order:stroke fill markers"
   d="M 27.639053,193.37168 78.00073,53.514018 c 9.650116,-20.7935 28.77568,-34.157514 50.11621,-34.157514 H 719.76117 L 670.64106,157.29255 c -16.33105,32.64348 -37.40163,36.07913 -63.09188,36.07913 z"
   id="path604-1"
   sodipodi:nodetypes="ccccccc" /><path
   id="path241"
   style="fill:#200094;fill-opacity:1;stroke-width:0.716112"
   class="st2"
   d="m 660.61061,32.891298 c -33.08433,0 -40.96161,8.879256 -51.20199,38.096592 -8.3069,23.488447 -3.15116,31.79565 7.5905,42.53733 7.44756,7.44755 13.391,11.81529 8.66468,23.77435 l -5.87156,15.18241 c -1.43223,3.58056 -2.72123,5.22678 -5.01279,5.22678 -3.50894,0 -3.65216,-2.14806 -2.14834,-6.15829 l 9.02274,-23.91841 h -32.08237 l -17.47202,47.9795 c 0,0 4.51068,1.14662 10.95567,2.29239 6.44501,1.14578 15.18131,2.21967 24.06109,2.21967 33.22755,0 39.96017,-9.30977 49.48444,-36.45037 8.66495,-24.63423 5.65727,-34.51661 -7.51917,-47.621445 -8.9514,-8.951391 -11.31484,-12.74596 -7.8059,-22.413463 l 3.72322,-10.169628 c 1.50384,-3.93861 2.64934,-5.155445 5.44218,-5.155445 2.29155,0 3.43817,1.288726 1.93434,5.442171 l -6.8744,19.263688 H 677.7973 L 694.12381,37.76002 c 0,0 -3.07874,-1.289004 -8.736,-2.506392 -5.58567,-1.21739 -13.89231,-2.36233 -24.7772,-2.36233 z m -524.83867,0.07133 c -33.08433,0 -40.961321,8.879258 -51.273325,38.096592 -8.235279,23.488449 -3.079833,31.79565 7.661838,42.53733 7.447557,7.44755 13.391007,11.81641 8.664677,23.84708 l -5.871561,15.10968 c -1.432224,3.58056 -2.721225,5.22818 -5.012783,5.22818 -3.508948,0 -3.651891,-2.14834 -2.219667,-6.08695 L 96.81518,127.77612 H 64.734207 l -17.54474,47.97949 c 0,0 4.582004,1.14523 11.027004,2.291 6.373389,1.07417 15.182697,2.21967 24.062477,2.21967 33.227552,0 39.887162,-9.30865 49.483052,-36.37764 8.66495,-24.63422 5.65726,-34.58822 -7.51918,-47.621444 -9.023,-8.951391 -11.31484,-12.747357 -7.80589,-22.414859 l 3.72321,-10.168229 c 1.50384,-3.938613 2.65075,-5.156845 5.44358,-5.156845 2.29155,0 3.43678,1.361735 1.93294,5.443568 l -6.94573,19.119628 h 32.3677 l 16.32791,-45.257711 c 0,0 -3.08012,-1.289002 -8.7374,-2.506391 -5.58567,-1.145778 -13.89231,-2.363729 -24.7772,-2.363729 z m 214.76223,0.358056 c -32.79789,0 -39.74449,7.088975 -48.98232,32.725753 l -30.0767,82.568253 c -6.65983,18.33245 -1.43164,31.58026 26.35347,31.58026 29.86183,0 37.52399,-9.52374 44.11221,-27.71297 l 14.03551,-38.52737 h -31.86697 l -13.74879,37.52453 c -1.50384,3.93861 -2.43506,6.15829 -6.01563,6.15829 -3.22248,0 -2.7931,-2.50556 -1.71893,-5.58484 l 32.15369,-88.297151 c 1.57545,-4.081833 2.57717,-5.586233 5.94289,-5.586233 2.64962,0 2.86557,1.862734 1.50496,5.872957 l -11.88858,32.296366 h 32.08237 l 21.26796,-58.363117 c 0,0 -2.79284,-1.217952 -8.23528,-2.363729 -5.37084,-1.145778 -13.6053,-2.290999 -24.91986,-2.290999 z M 179.02539,34.895571 126.67788,178.04661 h 25.7073 l 23.91842,-67.09912 -6.22962,67.09912 H 206.1663 L 257.86901,34.895572 h -25.4933 l -23.41769,67.387238 6.445,-67.387238 z m 89.51398,0.144061 -52.13351,143.151038 35.44754,-0.0727 52.06217,-143.078308 z m 125.24824,0 -52.20483,143.078308 34.15797,-0.0713 16.9727,-50.48588 -0.93151,50.55721 h 33.22787 l -1.64762,-71.96924 52.42023,-71.10907 h -34.30204 l -30.79281,43.396091 16.97129,-43.396099 z m 86.50548,0 -52.20484,143.078308 h 59.07923 l 8.45068,-23.70302 h -24.77719 l 13.3194,-36.52171 h 19.47768 l 8.88007,-24.347797 H 493.04043 L 505.357,59.029381 h 24.92126 l 9.16538,-23.989748 z m 64.95218,0 -52.1335,143.078308 h 32.00964 l 21.48336,-59.57995 h 0.35805 c 3.72377,0 4.94201,3.93918 2.29239,11.67319 l -16.25657,47.90676 h 31.36625 l 15.18102,-43.53876 c 2.86444,-8.16367 1.93407,-14.25146 0.21539,-18.40492 -0.78772,-2.07672 -2.07616,-4.15288 -3.72322,-5.87155 0.42966,-0.14322 1.07333,-0.35805 2.00428,-0.71611 8.4501,-3.43733 15.10995,-10.31174 18.26084,-19.048299 l 7.80591,-21.26936 c 7.51916,-20.910447 -0.57236,-34.229309 -20.55186,-34.229309 z m 22.70018,24.490466 h 1.1455 c 4.15344,0.07161 6.08724,1.933789 3.86729,8.163955 l -7.51918,20.767245 c -1.9335,5.227609 -4.43962,7.805898 -8.66467,7.805898 h -2.2924 z" /><g
   id="g249"
   transform="matrix(0.71611186,0,0,0.71611186,11.884592,16.850112)">
				<polygon
   class="st3"
   points="53.9,219.4 56.9,220 79.4,158.2 76.3,158.2 "
   id="polygon243" />
				<path
   class="st3"
   d="m 162,54.5 c -0.5,0 -1.1,0 -1.6,0.1 5.6,0.8 6.7,6.1 4.4,12.2 l -8,22.2 h 3.1 L 168,66.8 c 2.3,-6.6 0.9,-12.3 -6,-12.3 z"
   id="path245" />
				<path
   class="st3"
   d="m 124.9,139.9 c -2.2,-2.3 -4.7,-4.7 -7.3,-7.3 -14.2,-14.1 -20.8,-24.4 -9.9,-55.8 13.8,-39.2 23.6,-50.6 66.7,-50.9 H 173 c -44.5,0 -54.3,11.2 -68.3,50.9 -11.1,31.4 -4.3,41.7 9.8,55.8 2.7,2.6 5.1,5 7.3,7.3 2.3,2.4 4.3,4.9 5.8,7.8 3.2,6 3.5,12.8 -0.1,21.8 l -8.2,21.2 c -1.7,4.4 -4,8.7 -8.7,9.4 0.5,0.1 1.1,0.1 1.6,0.1 5.8,0 8.3,-4.6 10.2,-9.5 l 8.3,-21.2 c 3.5,-9 3.2,-15.8 0.1,-21.8 -1.7,-2.8 -3.8,-5.4 -5.9,-7.8 z"
   id="path247" />
			</g><g
   id="g261"
   transform="matrix(0.71611186,0,0,0.71611186,11.884592,16.850112)">
				<polygon
   class="st3"
   points="224.7,221.7 227.8,221.7 238.7,104.8 234.5,116.5 "
   id="polygon255" />
				<polygon
   class="st3"
   points="310.4,28.6 273.5,134.9 272.4,147.2 313.4,28.6 "
   id="polygon257" />
				<polygon
   class="st3"
   points="165.2,221.7 168.3,221.7 239,28.6 235.8,28.6 "
   id="polygon259" />
			</g><polygon
   class="st1"
   points="360.8,28.8 290.5,221.8 293.6,221.8 364,28.8 "
   id="polygon267"
   transform="matrix(0.71611186,0,0,0.71611186,11.884592,16.850112)" /><g
   id="g279"
   transform="matrix(0.71611186,0,0,0.71611186,11.884592,16.850112)">
				<path
   class="st3"
   d="M 368.8,185.2 410.7,69.9 c 12.4,-34.1 20.7,-43.2 63.6,-43.4 h -1.4 c -44.4,0 -52.7,9 -65.2,43.5 l -41.9,115.3 c -8.5,23.4 -2.8,39.5 33.6,39.5 h 1.7 c -35.3,-0.5 -40.6,-16.5 -32.3,-39.6 z"
   id="path273" />
				<path
   class="st3"
   d="m 462.4,54.3 c -0.7,0 -1.2,0 -1.8,0.1 2.4,0.3 4.5,1.7 5.1,4.6 0.5,2.4 -0.2,5.3 -1.2,8.1 l -14.8,40.5 h 3.1 l 14.8,-40.5 c 1,-2.8 1.8,-5.7 1.3,-8.1 -0.9,-3.5 -3.8,-4.7 -6.5,-4.7 z"
   id="path275" />
				<path
   class="st3"
   d="m 419.9,189.2 c -1.7,4.8 -3.7,10 -10,10.8 0.5,0 1,0.1 1.4,0.1 7.7,0 9.8,-5.6 11.7,-10.9 l 18.3,-50.1 h -3.1 z"
   id="path277" />
			</g><g
   id="g291"
   transform="matrix(0.71611186,0,0,0.71611186,11.884592,16.850112)">
				<polygon
   class="st3"
   points="533.9,221.8 537,221.8 538.7,132.5 535.4,142.3 "
   id="polygon285" />
				<polygon
   class="st3"
   points="601.7,28.8 550.7,100.9 546.9,110.7 604.8,28.8 "
   id="polygon287" />
				<polygon
   class="st3"
   points="465.3,221.8 468.4,221.8 538.8,28.8 535.7,28.8 "
   id="polygon289" />
			</g><polygon
   class="st1"
   points="656.6,28.8 586,221.8 589.2,221.8 659.6,28.8 "
   id="polygon297"
   transform="matrix(0.71611186,0,0,0.71611186,11.884592,16.850112)" /><g
   id="g309"
   transform="matrix(0.71611186,0,0,0.71611186,11.884592,16.850112)">
				<polygon
   class="st3"
   points="747.2,28.8 676.8,221.8 680,221.8 750.3,28.8 "
   id="polygon303" />
				<path
   class="st3"
   d="m 781.2,56.3 h -3.1 c 8.7,0 12.2,5.7 8.5,16 l -10.5,29 c -2.8,7.8 -7.3,13.2 -15.3,13.2 h 3.1 c 8.1,0 12.5,-5.3 15.4,-13.2 l 10.4,-29 c 3.8,-10.4 0.4,-16 -8.5,-16 z"
   id="path305" />
				<path
   class="st3"
   d="m 750.2,138.6 h -2.8 c 4.1,0.1 7.1,2.6 8,6.8 0.8,3.6 0,8.5 -1.8,14 l -21.2,62.4 h 3.1 l 21.2,-62.4 c 1.8,-5.6 2.7,-10.4 1.8,-14 -0.9,-4.2 -4,-6.8 -8.3,-6.8 z"
   id="path307" />
			</g><g
   id="g321"
   transform="matrix(0.71611186,0,0,0.71611186,11.884592,16.850112)">
				<polygon
   class="st3"
   points="786.8,219.3 789.7,219.9 812.3,158.2 809.2,158.2 "
   id="polygon315" />
				<path
   class="st3"
   d="m 894.9,54.5 c -0.6,0 -1.1,0 -1.6,0.1 5.5,0.7 6.6,6.1 4.4,12.1 L 889.6,89 h 3.2 l 8,-22.3 c 2.4,-6.5 1,-12.2 -5.9,-12.2 z"
   id="path317" />
				<path
   class="st3"
   d="m 857.8,139.9 c -2.2,-2.3 -4.6,-4.7 -7.3,-7.3 -14.2,-14.1 -20.8,-24.4 -9.9,-55.8 13.9,-39.2 23.6,-50.6 66.7,-50.9 h -1.4 c -44.5,0 -54.3,11.2 -68.3,50.9 -11.1,31.4 -4.3,41.7 9.9,55.8 2.6,2.6 5,5 7.2,7.3 2.3,2.4 4.3,4.9 5.9,7.8 3.1,6 3.4,12.8 -0.2,21.8 l -8.2,21.2 c -1.7,4.4 -4,8.7 -8.7,9.4 v 0 c 0.6,0.1 1.1,0.1 1.7,0.1 5.6,0 8.2,-4.6 10.1,-9.5 l 8.3,-21.2 c 3.5,-9.1 3.2,-15.8 0.1,-21.8 -1.6,-2.9 -3.8,-5.4 -5.9,-7.8 z"
   id="path319" />
			</g>
</svg>
